<svg xmlns="http://www.w3.org/2000/svg" viewBox="0 0 200 200" width="200" height="200">
  <!-- Navy circle background -->
  <circle cx="100" cy="100" r="98" fill="#0d1b2a"/>
  <!-- Flame shape -->
  <path d="M100 28 C100 28 118 52 118 72 C118 80 114 86 108 90 C110 82 106 74 100 70 C100 70 108 60 100 44 C98 56 90 62 88 72 C82 68 80 60 82 52 C76 60 76 72 80 82 C74 78 70 72 70 64 C70 80 78 92 100 100 C122 92 130 80 130 64 C130 72 126 78 120 82 C124 72 124 60 118 52 C118 60 116 68 110 72 C108 62 104 52 100 28Z" fill="#e84c10"/>
  <!-- Inner flame detail -->
  <path d="M100 56 C100 56 108 68 106 78 C104 86 100 90 100 90 C100 90 96 86 94 78 C92 68 100 56 100 56Z" fill="rgba(0,0,0,0.25)"/>
  <!-- ELGASCO text -->
  <text x="100" y="132" font-family="Arial Black, Arial, sans-serif" font-size="22" font-weight="900" fill="#ffffff" text-anchor="middle" letter-spacing="2">ELGASCO</text>
  <!-- Decorative lines and GMBH -->
  <line x1="48" y1="148" x2="78" y2="148" stroke="#e84c10" stroke-width="2"/>
  <text x="100" y="154" font-family="Arial, sans-serif" font-size="11" font-weight="600" fill="#ffffff" text-anchor="middle" letter-spacing="4">G M B H</text>
  <line x1="122" y1="148" x2="152" y2="148" stroke="#e84c10" stroke-width="2"/>
</svg>
